<?xml version="1.0" standalone="no"?>
<!DOCTYPE svg PUBLIC "-//W3C//DTD SVG 20010904//EN"
 "http://www.w3.org/TR/2001/REC-SVG-20010904/DTD/svg10.dtd">
<svg version="1.0" xmlns="http://www.w3.org/2000/svg"
 width="512.000000pt" height="512.000000pt" viewBox="0 0 512.000000 512.000000"
 preserveAspectRatio="xMidYMid meet">
<metadata>
Created by potrace 1.11, written by Peter Selinger 2001-2013
</metadata>
<g transform="translate(0.000000,512.000000) scale(0.100000,-0.100000)"
fill="#000000" stroke="none">
<path d="M886 3554 c-313 -543 -569 -992 -569 -998 0 -7 256 -456 569 -999
l569 -987 1145 3 1144 2 193 335 c106 184 193 338 193 342 0 5 -71 7 -157 6
l-157 -3 -116 -200 -116 -200 -985 -2 -984 -3 -489 847 c-269 466 -489 852
-489 858 0 6 220 393 488 858 l489 847 986 0 985 -1 115 -202 116 -202 157 -3
c92 -1 157 1 157 7 0 5 -87 159 -193 343 l-193 333 -1144 2 -1145 3 -569 -986z"/>
<path d="M1831 2584 c-177 -592 -325 -1082 -328 -1090 -4 -12 42 -14 299 -14
l305 0 52 190 53 190 389 0 388 0 35 -112 c19 -62 45 -148 57 -190 l23 -78
298 0 c233 0 296 3 293 13 -12 34 -655 2157 -655 2162 0 3 -200 5 -444 5
l-443 0 -322 -1076z m909 169 c71 -248 130 -456 130 -462 0 -8 -80 -11 -266
-11 l-266 0 7 28 c7 28 214 765 242 862 9 30 18 51 19 45 2 -5 62 -213 134
-462z"/>
</g>
</svg>
