<?xml version="1.0" encoding="utf-8"?>
<!-- Generator: Adobe Illustrator 14.0.0, SVG Export Plug-In . SVG Version: 6.00 Build 43363)  -->
<!DOCTYPE svg PUBLIC "-//W3C//DTD SVG 1.0//EN" "http://www.w3.org/TR/2001/REC-SVG-20010904/DTD/svg10.dtd">
<svg version="1.0" id="Ebene_2" xmlns="http://www.w3.org/2000/svg" xmlns:xlink="http://www.w3.org/1999/xlink" x="0px" y="0px"
	 width="593.945px" height="580.601px" viewBox="-174.952 -165.451 593.945 580.601"
	 enable-background="new -174.952 -165.451 593.945 580.601" xml:space="preserve">
<path fill="#F91D0A" d="M401.354,278.15h1.713c1.897,0,3.515-0.574,3.515-2.216c0-1.306-0.821-2.213-3.266-2.213
	c-0.978,0-1.552,0.09-1.962,0.178V278.15z M401.354,285.824h-2.536v-13.658c1.397-0.229,2.855-0.388,4.75-0.388
	c2.286,0,3.423,0.388,4.316,1.048c0.823,0.571,1.396,1.646,1.396,2.878c0,1.716-1.21,2.764-2.699,3.268v0.157
	c1.237,0.485,1.898,1.559,2.31,3.271c0.39,2.122,0.641,2.945,0.981,3.424h-2.628c-0.409-0.479-0.731-1.714-1.073-3.588
	c-0.317-1.486-1.207-2.126-3.174-2.126h-1.644V285.824z M403.986,291.805c-7.228,0-13.087-5.856-13.087-13.083
	c0-7.229,5.859-13.091,13.087-13.091c7.227,0,13.089,5.861,13.089,13.091C417.075,285.948,411.213,291.805,403.986,291.805z
	 M414.453,278.722c0-5.782-4.688-10.472-10.467-10.472s-10.469,4.689-10.469,10.472c0,5.781,4.689,10.47,10.469,10.47
	S414.453,284.503,414.453,278.722z"/>
<path id="path2434_1_" fill="#231F20" d="M-149.736,110.329l4.297-27.202c1.434-7.159,4.295-17.179,4.295-25.767h1.434
	c1.433,8.588,2.863,18.608,4.294,25.767l4.298,27.202H-149.736z M-128.257,121.79l5.726,31.491h15.748l-24.334-111.674h-17.184
	l-25.769,111.674h15.749l5.722-31.491H-128.257"/>
<path id="path2438_1_" fill="#231F20" d="M-11.287,141.826c-10.023,0-12.887-15.745-12.887-28.629c0-12.89,2.864-30.07,12.887-30.07
	s11.453,17.181,11.453,30.07C0.166,124.648-1.264,141.826-11.287,141.826z M-11.287,154.714c11.453,0,27.202-10.021,27.202-41.517
	c0-27.208-11.455-41.525-27.202-41.525c-14.317,0-28.635,11.455-28.635,41.525C-39.922,140.396-27.038,154.714-11.287,154.714"/>
<g>
	<path fill="#F91D0A" d="M83.513,87.544c-3.5-10.779-8.084-15.403-15.14-19.582l0.069-0.188c1.396-3.272,2.768-6.548,4.112-9.825
		l0,0l6.504-15.824C57.574-39.624,44.691-105.244,56.2-147.676l0,0c3.098-11.063,15.91-17.774,29.609-17.774l0,0l8.347,0.122h1.533
		c18.754-0.287,27.584,23.569,28.585,32.843l0,0c1.655,15.446-5.493,41.588-5.493,41.588l0,0c0-10.556,0.413-27.615-6.25-42.333l0,0
		c-7.756-17.032-15.165-27.208-21.806-28.821l0,0c-3.354,2.24-6.613,6.879-7.73,15.801l0,0c-2.313,12.511-3.006,28.302-3.006,36.441
		l0,0c0,28.761,5.662,66.722,16.79,105.854l0,0c2.099-6.059,3.948-11.88,5.415-17.333l0,0c2.282-8.597,16.79-65.578,16.79-65.578
		l0,0c0,0-3.656,75.853-8.763,98.803l0,0c-1.094,4.85-2.301,9.646-3.558,14.556l0,0c4.86,13.579,10.507,26.771,16.838,39.442
		l-0.099,0.125c-2.611-0.8-5.51-1.221-8.712-1.221c-9.467,0-18.384,4.963-21.463,8.042C88.961,77.146,83.513,87.544,83.513,87.544z"
		/>
	<path fill="#F91D0A" d="M121.84,121.25h21.5c0-1.717,0-9.773,0-14.925c0-1.954-0.053-3.864-0.161-5.725l0.067-0.188
		c13.781,21.139,29.527,40.1,46.611,56.053l0,0c13.909,12.998,31.473,23.479,48.099,33.031l0,0
		c36.305-5.186,69.733-7.637,97.62-7.328l0,0c36.998,0.488,64.158,5.961,75.156,16.793l0,0c5.384,5.264,7.568,11.625,8.248,18.754
		l0,0c0.16,2.771-1.191,9.289-1.586,10.924l0,0c0.395-1.979,0.395-11.715-29.306-21.195l0,0c-23.39-7.479-67.17-7.246-119.702-1.654
		l0,0c60.76,29.727,119.955,44.498,138.716,35.643l0,0c4.586-2.236,10.148-9.857,10.148-9.857l0,0c0,0-3.306,15.021-5.68,18.779l0,0
		c-3.029,4.082-8.974,8.502-14.609,9.99l0,0c-29.627,7.904-106.745-10.387-173.976-48.803l0,0
		c-75.113,11.063-157.605,31.5-223.728,53.188l0,0C-65.714,378.605-114.568,430.906-154.309,411.01l0,0l-14.61-7.346
		c-5.939-3.395-6.847-11.666-5.473-18.4l0,0c4.634-22.67,33.06-56.813,90.158-90.908l0,0c6.147-3.719,33.523-18.195,33.523-18.195
		l0,0c0,0-20.267,19.619-25.017,23.469l0,0c-45.575,37.346-79.21,84.33-78.371,102.545l0,0l0.164,1.59
		c38.716-5.52,96.872-84.266,171.412-230.357c2.046-4.01,5.912-11.53,5.912-11.53h29.897c0,0-7.783,15.372-12.155,23.64
		c-12.429,23.503-24.652,45.25-35.903,65.236l0,0c62.231-26.07,129.208-42.758,192.964-54.609l0,0
		c-8.568-5.918-16.886-12.182-24.713-18.805l0,0c-19.779-16.744-36.911-35.826-51.57-56.274L121.84,121.25z"/>
</g>
<path id="path2444_1_" fill="#231F20" d="M203.904,54.489c1.432,0,4.294-1.426,7.158-1.426c12.885,0,17.182,10.021,17.182,21.477
	c0,12.885-7.161,21.476-18.611,21.476c-2.864,0-4.297,0-5.729,0V54.489z M188.155,153.281h15.749V108.9c1.432,0,4.294,0,5.729,0
	c10.02,0,20.043-4.298,27.198-11.457c4.294-5.722,7.161-14.317,7.161-24.338s-2.867-18.617-8.596-24.34
	c-5.721-5.725-15.744-8.591-27.198-8.591c-7.158,0-14.313,1.433-18.611,2.866L188.155,153.281"/>
<path id="path2446_1_" fill="#231F20" d="M266.899,54.489c1.434-1.426,4.298-1.426,5.728-1.426c15.748,0,24.34,15.748,24.34,41.521
	c0,35.793-12.886,45.813-25.77,45.813c-1.435,0-2.864,0-4.298,0V54.489z M251.151,153.281c4.288,0,10.025,0,15.748,0
	c14.314,0,24.34-2.858,31.502-11.455c8.585-7.158,14.317-22.905,14.317-47.242c0-22.912-5.732-37.224-14.317-44.386
	c-7.162-7.157-15.755-10.023-28.639-10.023c-7.159,0-12.883,1.433-18.611,2.866V153.281"/>
<path id="path2448_1_" fill="#231F20" d="M321.303,41.607h44.386v12.881h-28.634v35.795h27.201v14.319h-27.201v48.679h-15.752
	V41.607"/>
<path d="M151.161,83.993h1.713c1.897,0,3.515-0.574,3.515-2.216c0-1.306-0.821-2.213-3.266-2.213c-0.978,0-1.552,0.09-1.962,0.178
	V83.993z M151.161,91.667h-2.536V78.009c1.397-0.229,2.855-0.388,4.75-0.388c2.286,0,3.423,0.388,4.316,1.048
	c0.823,0.571,1.396,1.646,1.396,2.878c0,1.716-1.21,2.764-2.699,3.268v0.157c1.237,0.485,1.898,1.559,2.31,3.271
	c0.39,2.122,0.641,2.945,0.981,3.424h-2.628c-0.409-0.479-0.731-1.714-1.073-3.588c-0.317-1.486-1.207-2.126-3.174-2.126h-1.644
	V91.667z M153.793,97.647c-7.228,0-13.087-5.856-13.087-13.083c0-7.229,5.859-13.091,13.087-13.091
	c7.227,0,13.089,5.861,13.089,13.091C166.882,91.791,161.019,97.647,153.793,97.647z M164.26,84.564
	c0-5.782-4.688-10.472-10.467-10.472s-10.469,4.689-10.469,10.472c0,5.781,4.689,10.47,10.469,10.47S164.26,90.346,164.26,84.564z"
	/>
<path id="path2442_1_" fill="#231F20" d="M100.818,104.603c0-10.019,4.298-21.476,11.456-21.476c7.155,0,11.448,7.157,11.448,21.476
	H100.818z M138.043,116.058c0-1.431,0-4.295,0-8.588c0-20.046-7.155-35.798-24.34-35.798c-17.182,0-28.633,15.752-28.633,41.525
	c0,25.765,10.026,41.517,30.068,41.517c7.722,0,15.749-1.433,20.04-4.291l-2.858-11.461c-2.867,1.435-8.598,2.864-12.891,2.864
	c-10.02,0-18.611-5.726-18.611-25.769H138.043"/>
<path fill="#1A171B" d="M-62.398,100.246c0-1.729-0.431-4.258-0.934-5.852c-1.336-5.115-5.274-9.896-9.954-9.896
	c-9.386,0-13.458,11.386-13.458,27.898c0,18.14,3.862,29.478,13.347,29.478c3.357,0,7.573-1.913,10.028-9.707
	c0.539-1.456,0.97-3.632,0.97-5.933V100.246z M-46.701,130.16c0,7.25,0.387,16.406,0.638,23.117h-13.15l-1.066-9.674h-0.386
	c-3.914,7.871-11.116,10.973-17.627,10.973c-13.647,0-24.18-15.217-24.18-43.674c0-22.495,10.298-39.476,24.386-39.476
	c7.08,0,11.594,3.322,15.29,9.527h0.299V38.886h15.796V130.16z"/>
<path fill="#1A171B" d="M39.827,126.234c0,2.301,0.431,4.477,0.97,5.933c2.456,7.794,6.671,9.707,10.028,9.707
	c9.485,0,13.347-11.338,13.347-29.478c0-16.512-4.071-27.898-13.458-27.898c-4.68,0-8.618,4.781-9.954,9.896
	c-0.502,1.594-0.934,4.123-0.934,5.852V126.234z M24.13,38.886h15.796v42.068h0.299c3.696-6.205,8.21-9.527,15.29-9.527
	c14.088,0,24.386,16.981,24.386,39.476c0,28.457-10.533,43.674-24.18,43.674c-6.511,0-13.714-3.102-17.627-10.973h-0.386
	l-1.066,9.674h-13.15c0.251-6.711,0.638-15.867,0.638-23.117V38.886z"/>
</svg>
