<?xml version="1.0" encoding="utf-8"?>
<!-- Generator: Adobe Illustrator 18.0.0, SVG Export Plug-In . SVG Version: 6.00 Build 0)  -->
<!DOCTYPE svg PUBLIC "-//W3C//DTD SVG 1.1//EN" "http://www.w3.org/Graphics/SVG/1.1/DTD/svg11.dtd">
<svg version="1.1" id="Layer_1" xmlns="http://www.w3.org/2000/svg" xmlns:xlink="http://www.w3.org/1999/xlink" x="0px" y="0px"
	 viewBox="0 0 64 64" enable-background="new 0 0 64 64" xml:space="preserve">
<g>
	<g>
		<g>
			<path fill="#F94646" d="M32,0c17.7,0,32,14.3,32,32S49.7,64,32,64S0,49.7,0,32S14.3,0,32,0z"/>
		</g>
	</g>
	<g>
		<g>
			<path fill="#FFFFFF" d="M41.8,10l8.2,7.8v34.8c0,0.8-0.7,1.4-1.5,1.4h-33c-0.8,0-1.5-0.6-1.5-1.4V11.4c0-0.8,0.7-1.4,1.5-1.4
				H41.8z"/>
		</g>
	</g>
	<g>
		<g>
			<polygon fill="#D3D5DD" points="50,17.8 41.8,17.8 41.8,10 			"/>
		</g>
	</g>
	<g>
		<g>
			<path fill="#F94646" d="M41.8,28.5c1.5,0.9,1.3,2.4,1.1,3c-0.2,0.5-0.9,1.4-2.4,1.4c-0.3,0-0.7,0-1.1-0.2
				c-1.2-0.3-2.1-0.9-4.4-3.3c-1.1,0.1-2.3,0.3-3.5,0.5c-1,0.2-1.9,0.4-2.7,0.7c-2.7,5.3-4,5.9-4.5,6.1c-0.4,0.1-0.7,0.2-1,0.2
				c-1.1,0-1.7-0.8-2-1.2c-0.3-0.5-0.8-1.8,0.9-3.6c0.7-0.7,2-2,5.2-3.1c0.4-0.9,0.9-1.8,1.3-2.8c0.5-1.1,0.9-2.1,1.2-2.9
				c-1.3-2.1-1.5-3.7-1.5-5.5c0-2.1,1.5-2.8,2.4-2.8c0.6,0,2.3,0.6,2.4,3.3c0,1.1-0.1,2.3-1.1,4.8c0.7,1,1.5,2,2.7,3.3
				c0.4,0.4,0.7,0.8,1,1.1c0.3,0,0.6,0,0.8,0C38.9,27.5,40.7,27.9,41.8,28.5z M41,30.8c0.1-0.3-0.2-0.5-0.3-0.6
				c-0.2-0.1-1.1-0.6-2.9-0.7c1.2,1.1,1.6,1.3,2.1,1.4c0.2,0,0.4,0.1,0.5,0.1C40.8,31,41,30.9,41,30.8z M33.3,27.7L33.3,27.7
				L33.3,27.7c-0.8-0.9-1.4-1.7-2-2.4l0,0.1l0,0c-0.2,0.5-0.5,1.1-0.7,1.7c-0.2,0.4-0.4,0.8-0.5,1.1l0.1,0L30,28.3
				c0.4-0.1,0.7-0.2,1.1-0.2C31.9,28,32.6,27.8,33.3,27.7z M30.9,20.8c0.4-1.2,0.4-1.9,0.4-2.4c0-0.9-0.3-1.3-0.5-1.4
				c-0.2,0.1-0.3,0.4-0.3,0.9C30.4,18.8,30.5,19.6,30.9,20.8z M23.5,34.9c0.1,0,0.8-0.4,2.4-3.1c-1.3,0.7-1.9,1.3-2.3,1.7
				c-0.6,0.6-0.6,1-0.6,1.2l0.2,0.1l-0.1,0c0,0,0.1,0.1,0.2,0.1C23.3,35,23.4,35,23.5,34.9z"/>
		</g>
	</g>
	<g>
		<g>
			<polygon points="42,41 42,42.5 38.3,42.5 38.3,44.1 41.1,44.1 41.1,45.6 38.3,45.6 38.3,49 36.5,49 36.5,41 			"/>
		</g>
	</g>
	<g>
		<g>
			<path d="M35.4,43.4c0.2,0.5,0.2,1,0.2,1.6c0,0.6-0.1,1.2-0.2,1.7c-0.2,0.5-0.4,0.9-0.7,1.3c-0.7,0.7-1.6,1-2.8,1H29v-8h2.7
				c0.7,0,1.2,0.1,1.7,0.3c0.5,0.2,0.9,0.5,1.2,0.8C35,42.5,35.2,42.9,35.4,43.4z M33.7,46c0.1-0.3,0.1-0.6,0.1-1
				c0-0.4,0-0.8-0.1-1.1c-0.1-0.3-0.2-0.6-0.4-0.8c-0.3-0.4-0.9-0.6-1.5-0.6h-1v5.1h0.9c0.4,0,0.8-0.1,1-0.2
				c0.3-0.1,0.5-0.3,0.6-0.6C33.6,46.5,33.7,46.3,33.7,46z"/>
		</g>
	</g>
	<g>
		<g>
			<path d="M27.9,42.3c0.1,0.3,0.2,0.7,0.2,1.1c0,0.8-0.3,1.4-0.8,1.8c-0.5,0.4-1.3,0.6-2.2,0.6h-1.3V49H22v-8h3.1
				c0.4,0,0.8,0,1.2,0.1c0.4,0.1,0.7,0.2,0.9,0.4C27.5,41.7,27.7,42,27.9,42.3z M26.3,43.5c0-0.2,0-0.3-0.1-0.5
				c-0.1-0.1-0.1-0.2-0.2-0.3c-0.2-0.1-0.6-0.2-1.1-0.2h-1.1v1.9h1.1c0.2,0,0.4,0,0.5,0c0.2,0,0.3-0.1,0.4-0.1
				c0.1-0.1,0.2-0.2,0.3-0.3C26.3,43.8,26.3,43.7,26.3,43.5z"/>
		</g>
	</g>
</g>
</svg>
